<svg width="339" height="72" viewBox="0 0 339 72" fill="none" xmlns="http://www.w3.org/2000/svg">
<path d="M33.0032 59.6732L38.505 38.7301C38.9976 36.8551 40.2002 35.2553 41.8499 34.2838L68.9559 18.3217C71.4926 16.8279 72.3618 13.5189 70.8973 10.9316L66.3083 2.82451C64.8438 0.23722 61.5996 -0.649416 59.0629 0.844357L52.2671 4.84625C50.6689 5.78743 48.7701 6.06647 46.9749 5.62018L25.6841 0.314917C23.3591 -0.320505 20.8806 0.014368 18.7981 1.24067L2.65277 10.7483C0.116132 12.2421 -0.753147 15.5511 0.711383 18.1384L5.30041 26.2455C6.76494 28.8328 10.0091 29.7194 12.5458 28.2257L50.0512 6.13952L49.2115 6.67477C47.4182 7.91729 46.1112 9.77666 45.5461 11.9275L40.0244 32.9463C39.5445 34.7732 38.3748 36.3302 36.768 37.2764L9.58912 53.2815C7.05248 54.7753 6.1832 58.0842 7.64773 60.6715L12.2368 68.7787C13.7013 71.3659 16.9455 72.2526 19.4821 70.7588L26.2479 66.7746C27.8633 65.8233 29.7855 65.5655 31.5901 66.0586L52.1772 71.6851C54.5022 72.3205 56.9807 71.9856 59.0631 70.7593L75.8941 60.848C78.4307 59.3542 79.3 56.0452 77.8355 53.4579L73.2464 45.3508C71.7819 42.7635 68.5377 41.8769 66.0011 43.3706L28.4957 65.4568L29.3353 64.9215C31.1286 63.679 32.4357 61.8196 33.0007 59.6688L33.0032 59.6732Z" fill="white" style="fill:white;fill-opacity:1;"/>
<path d="M328.389 37.1657C328.389 30.7122 325.079 27.8991 320.859 27.8991C315.978 27.8991 311.344 31.7878 309.938 39.0687L310.186 63.1453C310.186 63.4762 309.855 63.8072 309.524 63.8072H300.919C300.588 63.8072 300.257 63.4762 300.257 63.1453L300.588 34.6009L300.257 6.55284C300.257 6.22189 300.588 5.89094 300.919 5.89094H309.524C309.855 5.89094 310.186 6.22189 310.186 6.55284L310.021 26.9063C312.834 22.8521 317.302 20.2045 323.424 20.2045C332.691 20.2045 338.4 25.8307 338.235 38.2413V47.0942L338.4 63.1453C338.4 63.4762 338.069 63.8072 337.738 63.8072H328.885C328.554 63.8072 328.223 63.4762 328.223 63.1453L328.471 47.2597L328.389 37.1657Z" fill="white" style="fill:white;fill-opacity:1;"/>
<path d="M293.959 56.8572V62.4834C293.959 62.8971 293.711 63.228 293.297 63.3108C291.229 63.9727 288.747 64.5518 286.43 64.5518C279.728 64.5518 273.688 61.1596 273.688 51.6448L273.771 28.6438H268.889C268.558 28.6438 268.227 28.3128 268.227 27.9818V21.8593C268.227 21.5283 268.558 21.1974 268.889 21.1974H273.771L273.688 11.1861C273.688 10.8552 274.019 10.5242 274.35 10.5242H283.038C283.369 10.5242 283.7 10.8552 283.7 11.1861L283.617 21.1974H293.297C293.628 21.1974 293.959 21.5283 293.959 21.8593V27.9818C293.959 28.3128 293.628 28.6438 293.297 28.6438H283.617V51.3966C283.617 55.6989 285.437 57.0227 288.581 57.0227C290.484 57.0227 292.056 56.6918 293.297 56.3608C293.628 56.2781 293.959 56.5263 293.959 56.8572Z" fill="white" style="fill:white;fill-opacity:1;"/>
<path d="M260.983 16.8123H252.212C251.881 16.8123 251.55 16.4813 251.55 16.1504V7.62842C251.55 7.29747 251.881 6.96652 252.212 6.96652H260.983C261.314 6.96652 261.645 7.29747 261.645 7.62842V16.1504C261.645 16.4813 261.314 16.8123 260.983 16.8123ZM261.065 63.8072H252.212C251.881 63.8072 251.55 63.4762 251.55 63.1453L251.716 42.2127L251.55 21.8593C251.55 21.5283 251.881 21.1974 252.212 21.1974H261.065C261.396 21.1974 261.727 21.5283 261.727 21.8593L261.479 42.2127L261.727 63.1453C261.727 63.4762 261.396 63.8072 261.065 63.8072Z" fill="white" style="fill:white;fill-opacity:1;"/>
<path d="M215.087 63.8072H206.151C205.82 63.8072 205.489 63.4762 205.489 63.1453L205.737 43.7847L205.655 21.8593C205.655 21.5283 205.986 21.1974 206.317 21.1974H214.673C215.004 21.1974 215.335 21.5283 215.335 21.8593L215.087 27.4027C217.817 23.4313 222.699 20.2045 229.07 20.2045C237.923 20.2045 243.632 26.1616 243.632 36.9175V45.6877L243.797 63.1453C243.797 63.4762 243.466 63.8072 243.135 63.8072H234.365C234.034 63.8072 233.703 63.4762 233.703 63.1453L233.869 45.6877V37.1657C233.869 31.1259 230.642 27.9818 226.091 27.9818C221.127 27.9818 216.411 32.2015 215.583 41.0544V45.6877L215.749 63.1453C215.749 63.4762 215.418 63.8072 215.087 63.8072Z" fill="white" style="fill:white;fill-opacity:1;"/>
<path d="M189.003 49.2454H197.277C197.608 49.2454 197.939 49.5763 197.856 49.9073C196.698 58.0983 189.665 64.8 178.247 64.8C164.513 64.8 157.149 55.6162 157.149 42.6264C157.149 29.1402 165.009 20.2045 177.916 20.2045C191.154 20.2045 198.601 29.1402 198.849 43.702C198.849 44.0329 198.518 44.3639 198.187 44.3639H167.077C167.491 53.465 171.214 57.7673 178.413 57.7673C183.625 57.7673 187.018 55.2025 188.176 49.9073C188.259 49.4936 188.672 49.2454 189.003 49.2454ZM188.093 37.6621C187.679 32.1187 184.535 27.1545 177.999 27.1545C172.042 27.1545 168.484 30.7949 167.408 37.6621H188.093Z" fill="white" style="fill:white;fill-opacity:1;"/>
<path d="M154.148 56.5263V63.1453C154.148 63.4762 153.817 63.8072 153.486 63.8072H110.628C110.297 63.8072 109.966 63.4762 109.966 63.1453V55.7817C109.966 55.368 110.131 54.8715 110.379 54.6233L141.82 13.8337H112.779C112.448 13.8337 112.117 13.5028 112.117 13.1718V6.55284C112.117 6.22189 112.448 5.89094 112.779 5.89094H153.238C153.569 5.89094 153.9 6.22189 153.9 6.55284V14.1647C153.9 14.5784 153.735 15.0748 153.486 15.323L122.459 55.8644H153.486C153.817 55.8644 154.148 56.1953 154.148 56.5263Z" fill="white" style="fill:white;fill-opacity:1;"/>
</svg>
